<svg width="36" height="37" viewBox="0 0 36 37" fill="none" xmlns="http://www.w3.org/2000/svg">
<rect y="0.996582" width="36" height="36" rx="18" fill="white"/>
<path d="M18 14.4858C14.3763 10.1072 10.5503 13.2184 10.5 16.5722C10.5 21.5651 16.5661 25.6633 18 25.6633C19.4339 25.6633 25.5 21.5651 25.5 16.5722C25.4497 13.2184 21.6236 10.1072 18 14.4858Z" fill="white"/>
<path d="M10.5 16.5722L9.75 16.561V16.5722H10.5ZM18 14.4858L17.4222 14.964C17.5647 15.1362 17.7765 15.2358 18 15.2358C18.2235 15.2358 18.4353 15.1362 18.5778 14.964L18 14.4858ZM25.5 16.5722H26.2501L26.2499 16.561L25.5 16.5722ZM11.2499 16.5835C11.2713 15.1573 12.1029 13.8249 13.2228 13.311C13.7667 13.0614 14.3952 12.9939 15.0827 13.2088C15.7794 13.4266 16.5833 13.9503 17.4222 14.964L18.5778 14.0077C17.6049 12.832 16.5716 12.1027 15.5302 11.7771C14.4796 11.4487 13.4691 11.5476 12.5972 11.9477C10.8856 12.7332 9.77902 14.6333 9.75008 16.561L11.2499 16.5835ZM18 24.9133C17.9662 24.9133 17.822 24.8926 17.5457 24.7815C17.2881 24.678 16.9694 24.518 16.6091 24.3018C15.8889 23.8697 15.0421 23.2369 14.2351 22.4523C12.599 20.8617 11.25 18.7717 11.25 16.5722H9.75C9.75 19.3656 11.434 21.8211 13.1895 23.5278C14.0782 24.3919 15.0168 25.0957 15.8373 25.5881C16.2473 25.834 16.6378 26.0333 16.9864 26.1733C17.3163 26.3059 17.6753 26.4133 18 26.4133V24.9133ZM26.2499 16.561C26.221 14.6333 25.1144 12.7332 23.4028 11.9477C22.5309 11.5476 21.5204 11.4487 20.4697 11.7771C19.4283 12.1027 18.3951 12.832 17.4222 14.0077L18.5778 14.964C19.4167 13.9503 20.2206 13.4266 20.9173 13.2088C21.6048 12.9939 22.2333 13.0614 22.7772 13.311C23.8971 13.8249 24.7287 15.1573 24.7501 16.5835L26.2499 16.561ZM18 26.4133C18.3247 26.4133 18.6837 26.3059 19.0136 26.1733C19.3622 26.0333 19.7527 25.834 20.1627 25.5881C20.9832 25.0957 21.9217 24.3919 22.8105 23.5278C24.566 21.8211 26.25 19.3656 26.25 16.5722H24.75C24.75 18.7717 23.401 20.8617 21.7649 22.4523C20.9579 23.2369 20.1111 23.8697 19.3909 24.3018C19.0306 24.518 18.7119 24.678 18.4543 24.7815C18.178 24.8926 18.0338 24.9133 18 24.9133V26.4133Z" fill="#353949"/>
</svg>
