<svg width="24" height="25" viewBox="0 0 24 25" fill="none" xmlns="http://www.w3.org/2000/svg">
<path d="M19.8501 19.0637L19.1242 18.8752L19.8501 19.0637ZM20.9744 10.7538L21.7237 10.7859L20.9744 10.7538ZM5.69568 20.5787L5.83173 19.8411L5.69568 20.5787ZM2.27629 10.7859C2.35909 12.7176 2.6576 16.3011 3.42399 19.2522L4.87583 18.8752C4.14868 16.0751 3.85603 12.6141 3.77491 10.7216L2.27629 10.7859ZM5.55963 21.3163C6.78925 21.5431 8.85701 21.7551 12 21.7551V20.2551C8.91602 20.2551 6.94465 20.0464 5.83173 19.8411L5.55963 21.3163ZM20.2251 10.7216C20.144 12.6141 19.8513 16.0751 19.1242 18.8752L20.576 19.2522C21.3424 16.3011 21.6409 12.7176 21.7237 10.7859L20.2251 10.7216ZM18.1683 19.8411C17.0553 20.0464 15.084 20.2551 12 20.2551V21.7551C15.143 21.7551 17.2107 21.5431 18.4404 21.3163L18.1683 19.8411ZM4 10.5051H20V9.00513H4V10.5051ZM19.1242 18.8752C18.986 19.4073 18.6218 19.7575 18.1683 19.8411L18.4404 21.3163C19.5517 21.1113 20.3142 20.2603 20.576 19.2522L19.1242 18.8752ZM21.7237 10.7859C21.7664 9.7896 20.9608 9.00513 20 9.00513V10.5051C20.1438 10.5051 20.2297 10.6143 20.2251 10.7216L21.7237 10.7859ZM3.42399 19.2522C3.68577 20.2603 4.44831 21.1113 5.55963 21.3163L5.83173 19.8411C5.37815 19.7575 5.01403 19.4073 4.87583 18.8752L3.42399 19.2522ZM3.77491 10.7216C3.77032 10.6143 3.85623 10.5051 4 10.5051V9.00513C3.0392 9.00513 2.23359 9.7896 2.27629 10.7859L3.77491 10.7216Z" fill="white"/>
<path d="M6 9.75513C6 10.1693 6.33579 10.5051 6.75 10.5051C7.16421 10.5051 7.5 10.1693 7.5 9.75513H6ZM16.5 9.75513C16.5 10.1693 16.8358 10.5051 17.25 10.5051C17.6642 10.5051 18 10.1693 18 9.75513H16.5ZM7.5 9.75513V8.00513H6V9.75513H7.5ZM11.75 3.75513H12.25V2.25513H11.75V3.75513ZM16.5 8.00513V9.75513H18V8.00513H16.5ZM12.25 3.75513C14.5972 3.75513 16.5 5.65792 16.5 8.00513H18C18 4.82949 15.4256 2.25513 12.25 2.25513V3.75513ZM7.5 8.00513C7.5 5.65792 9.40279 3.75513 11.75 3.75513V2.25513C8.57436 2.25513 6 4.82949 6 8.00513H7.5Z" fill="white"/>
<path d="M9 14.2551V16.5051M15 14.2551V16.5051" stroke="white" stroke-width="1.5" stroke-linecap="round" stroke-linejoin="round"/>
</svg>
